<svg xmlns="http://www.w3.org/2000/svg" width="24" height="24" viewBox="0 0 24 24" fill="none">
  <path d="M12 8.5A3.5 3.5 0 1 0 12 15.5A3.5 3.5 0 0 0 12 8.5Z" fill="#ffffff"/>
  <path d="M19.4 13.5C19.47 13.01 19.5 12.51 19.5 12C19.5 11.49 19.47 10.99 19.4 10.5L21.2 9.1C21.36 8.97 21.41 8.74 21.32 8.56L19.62 5.44C19.53 5.26 19.31 5.18 19.12 5.24L16.99 5.92C16.22 5.31 15.35 4.82 14.4 4.5L14.1 2.26C14.07 2.06 13.89 1.9 13.69 1.9H10.31C10.11 1.9 9.93 2.06 9.9 2.26L9.6 4.5C8.65 4.82 7.78 5.31 7.01 5.92L4.88 5.24C4.69 5.18 4.47 5.26 4.38 5.44L2.68 8.56C2.59 8.74 2.64 8.97 2.8 9.1L4.6 10.5C4.53 10.99 4.5 11.49 4.5 12C4.5 12.51 4.53 13.01 4.6 13.5L2.8 14.9C2.64 15.03 2.59 15.26 2.68 15.44L4.38 18.56C4.47 18.74 4.69 18.82 4.88 18.76L7.01 18.08C7.78 18.69 8.65 19.18 9.6 19.5L9.9 21.74C9.93 21.94 10.11 22.1 10.31 22.1H13.69C13.89 22.1 14.07 21.94 14.1 21.74L14.4 19.5C15.35 19.18 16.22 18.69 16.99 18.08L19.12 18.76C19.31 18.82 19.53 18.74 19.62 18.56L21.32 15.44C21.41 15.26 21.36 15.03 21.2 14.9L19.4 13.5Z" stroke="#ffffff" stroke-width="1.2" stroke-linejoin="round"/>
</svg>
